<mxfile host="65bd71144e">
    <diagram id="mjyBdvLqkVLSNlbQo3Wl" name="Page-1">
        <mxGraphModel dx="635" dy="1689" grid="1" gridSize="10" guides="1" tooltips="1" connect="1" arrows="1" fold="1" page="1" pageScale="1" pageWidth="850" pageHeight="1100" math="0" shadow="0">
            <root>
                <mxCell id="0"/>
                <mxCell id="1" parent="0"/>
                <mxCell id="2" value="&lt;div&gt;&lt;i style=&quot;font-weight: normal;&quot;&gt;&amp;lt;&amp;lt;interface&amp;gt;&amp;gt;&lt;/i&gt;&lt;/div&gt;&lt;div&gt;&lt;i style=&quot;background-color: initial;&quot;&gt;Application&lt;/i&gt;&lt;/div&gt;" style="swimlane;fontStyle=1;align=center;verticalAlign=top;childLayout=stackLayout;horizontal=1;startSize=40;horizontalStack=0;resizeParent=1;resizeParentMax=0;resizeLast=0;collapsible=1;marginBottom=0;whiteSpace=wrap;html=1;" vertex="1" parent="1">
                    <mxGeometry x="170" y="1010" width="410" height="260" as="geometry"/>
                </mxCell>
                <mxCell id="3" value="" style="line;strokeWidth=1;fillColor=none;align=left;verticalAlign=middle;spacingTop=-1;spacingLeft=3;spacingRight=3;rotatable=0;labelPosition=right;points=[];portConstraint=eastwest;strokeColor=inherit;" vertex="1" parent="2">
                    <mxGeometry y="40" width="410" height="8" as="geometry"/>
                </mxCell>
                <mxCell id="4" value="+ run(): void&lt;div&gt;+ manageClients(&lt;span style=&quot;background-color: initial;&quot;&gt;clients: ArrayList&amp;lt;Client&amp;gt;&lt;/span&gt;&lt;span style=&quot;background-color: initial;&quot;&gt;): void&lt;/span&gt;&lt;/div&gt;&lt;div&gt;+ addClient(&lt;span style=&quot;background-color: initial;&quot;&gt;clients: ArrayList&amp;lt;Client&amp;gt;&lt;/span&gt;&lt;span style=&quot;background-color: initial;&quot;&gt;): void&lt;/span&gt;&lt;/div&gt;&lt;div&gt;&lt;div&gt;+ managePet(&lt;span style=&quot;background-color: initial;&quot;&gt;pets:&amp;nbsp;&lt;/span&gt;&lt;span style=&quot;background-color: initial;&quot;&gt;ArrayList&amp;lt;Pet&amp;gt;&lt;/span&gt;&lt;span style=&quot;background-color: initial;&quot;&gt;): void&lt;/span&gt;&lt;/div&gt;&lt;div&gt;+ addPet(&lt;span style=&quot;background-color: initial;&quot;&gt;pets:&amp;nbsp;&lt;/span&gt;&lt;span style=&quot;background-color: initial;&quot;&gt;ArrayList&amp;lt;Pet&amp;gt;&lt;/span&gt;&lt;span style=&quot;background-color: initial;&quot;&gt;): void&lt;/span&gt;&lt;/div&gt;&lt;div&gt;+ updatePet(pets:&amp;nbsp;&lt;span style=&quot;background-color: initial;&quot;&gt;ArrayList&amp;lt;Pet&amp;gt;&lt;/span&gt;&lt;span style=&quot;background-color: initial;&quot;&gt;): void&lt;/span&gt;&lt;/div&gt;&lt;div&gt;&lt;span style=&quot;background-color: initial;&quot;&gt;+ removePet(&lt;/span&gt;&lt;span style=&quot;background-color: initial;&quot;&gt;pets:&amp;nbsp;&lt;/span&gt;&lt;span style=&quot;background-color: initial;&quot;&gt;ArrayList&amp;lt;Pet&amp;gt;&lt;/span&gt;&lt;span style=&quot;background-color: initial;&quot;&gt;): void&lt;/span&gt;&lt;/div&gt;&lt;div&gt;&lt;span style=&quot;background-color: initial;&quot;&gt;+ manageBookings(bookings: ArrayList&amp;lt;Booking&amp;gt;):void&lt;/span&gt;&lt;/div&gt;&lt;div&gt;&lt;span style=&quot;background-color: initial;&quot;&gt;+ addBooking(&lt;/span&gt;&lt;span style=&quot;background-color: initial;&quot;&gt;bookings: ArrayList&amp;lt;Booking&amp;gt;):void&lt;/span&gt;&lt;/div&gt;&lt;div&gt;&lt;span style=&quot;background-color: initial;&quot;&gt;+ updateBooking(&lt;/span&gt;&lt;span style=&quot;background-color: initial;&quot;&gt;bookings: ArrayList&amp;lt;Booking&amp;gt;):void&lt;/span&gt;&lt;/div&gt;&lt;div&gt;&lt;span style=&quot;background-color: initial;&quot;&gt;+ removeBooking(&lt;/span&gt;&lt;span style=&quot;background-color: initial;&quot;&gt;bookings: ArrayList&amp;lt;Booking&amp;gt;):void&lt;/span&gt;&lt;/div&gt;&lt;div&gt;&lt;span style=&quot;background-color: initial;&quot;&gt;+ displayBookingHistory(&lt;/span&gt;&lt;span style=&quot;background-color: initial;&quot;&gt;bookings: ArrayList&amp;lt;Booking&amp;gt;):void&lt;/span&gt;&lt;/div&gt;&lt;div&gt;&lt;span style=&quot;background-color: initial;&quot;&gt;+ findClientByName(clientName: String): Client&lt;/span&gt;&lt;/div&gt;&lt;div&gt;&lt;span style=&quot;background-color: initial;&quot;&gt;+ findPetByName(petName: String): Pet&lt;/span&gt;&lt;/div&gt;&lt;/div&gt;" style="text;strokeColor=none;fillColor=none;align=left;verticalAlign=top;spacingLeft=4;spacingRight=4;overflow=hidden;rotatable=0;points=[[0,0.5],[1,0.5]];portConstraint=eastwest;whiteSpace=wrap;html=1;" vertex="1" parent="2">
                    <mxGeometry y="48" width="410" height="212" as="geometry"/>
                </mxCell>
                <mxCell id="5" value="&lt;div&gt;Staff&lt;/div&gt;" style="swimlane;fontStyle=1;align=center;verticalAlign=top;childLayout=stackLayout;horizontal=1;startSize=26;horizontalStack=0;resizeParent=1;resizeParentMax=0;resizeLast=0;collapsible=1;marginBottom=0;whiteSpace=wrap;html=1;" vertex="1" parent="1">
                    <mxGeometry x="1380" y="626" width="220" height="170" as="geometry"/>
                </mxCell>
                <mxCell id="6" value="- name: String&lt;div&gt;- staffID: String&lt;/div&gt;&lt;div&gt;&lt;br&gt;&lt;div&gt;&lt;br&gt;&lt;/div&gt;&lt;/div&gt;" style="text;strokeColor=none;fillColor=none;align=left;verticalAlign=top;spacingLeft=4;spacingRight=4;overflow=hidden;rotatable=0;points=[[0,0.5],[1,0.5]];portConstraint=eastwest;whiteSpace=wrap;html=1;" vertex="1" parent="5">
                    <mxGeometry y="26" width="220" height="34" as="geometry"/>
                </mxCell>
                <mxCell id="7" value="" style="line;strokeWidth=1;fillColor=none;align=left;verticalAlign=middle;spacingTop=-1;spacingLeft=3;spacingRight=3;rotatable=0;labelPosition=right;points=[];portConstraint=eastwest;strokeColor=inherit;" vertex="1" parent="5">
                    <mxGeometry y="60" width="220" height="20" as="geometry"/>
                </mxCell>
                <mxCell id="8" value="+ Staff(name:String, staffID: String)&lt;div&gt;+ setName(name:String): void&lt;/div&gt;&lt;div&gt;+ setStaffID(staffID: String): void&lt;/div&gt;&lt;div&gt;+ getName(): String&lt;/div&gt;&lt;div&gt;+ getStaffID(): String&lt;/div&gt;" style="text;strokeColor=none;fillColor=none;align=left;verticalAlign=top;spacingLeft=4;spacingRight=4;overflow=hidden;rotatable=0;points=[[0,0.5],[1,0.5]];portConstraint=eastwest;whiteSpace=wrap;html=1;" vertex="1" parent="5">
                    <mxGeometry y="80" width="220" height="90" as="geometry"/>
                </mxCell>
                <mxCell id="9" value="Pet" style="swimlane;fontStyle=1;align=center;verticalAlign=top;childLayout=stackLayout;horizontal=1;startSize=26;horizontalStack=0;resizeParent=1;resizeParentMax=0;resizeLast=0;collapsible=1;marginBottom=0;whiteSpace=wrap;html=1;" vertex="1" parent="1">
                    <mxGeometry x="750" y="580" width="310" height="400" as="geometry"/>
                </mxCell>
                <mxCell id="10" value="- name: String&lt;div&gt;&lt;u&gt;- petID: int&lt;/u&gt;&lt;/div&gt;&lt;div&gt;- breedType: String&lt;/div&gt;&lt;div&gt;- owner: Client&lt;/div&gt;&lt;div&gt;- careProfile: PetCareProfile&lt;/div&gt;" style="text;strokeColor=none;fillColor=none;align=left;verticalAlign=top;spacingLeft=4;spacingRight=4;overflow=hidden;rotatable=0;points=[[0,0.5],[1,0.5]];portConstraint=eastwest;whiteSpace=wrap;html=1;" vertex="1" parent="9">
                    <mxGeometry y="26" width="310" height="84" as="geometry"/>
                </mxCell>
                <mxCell id="11" value="" style="line;strokeWidth=1;fillColor=none;align=left;verticalAlign=middle;spacingTop=-1;spacingLeft=3;spacingRight=3;rotatable=0;labelPosition=right;points=[];portConstraint=eastwest;strokeColor=inherit;" vertex="1" parent="9">
                    <mxGeometry y="110" width="310" height="30" as="geometry"/>
                </mxCell>
                <mxCell id="12" value="+ Pet(name: String, petID: int, breedType: String, owner: Client, careProfile: PetCareProfile)&lt;div&gt;+ Pet(name: String, petID:int, breedType:String, careProfile: PetCareProfile)&lt;/div&gt;&lt;div&gt;+ setName(name: String): void&lt;/div&gt;&lt;div&gt;+ setPetID(petID: int):void&lt;/div&gt;&lt;div&gt;+ setBreedType(breedType: String): void&lt;/div&gt;&lt;div&gt;+ setOwner(name: String, phoneNumber: String, address: String): void&lt;/div&gt;&lt;div&gt;+ setCareProfile(feedingInstruction: FeedingInstruction, medicationList: Medication, medInstructions: String):void&lt;/div&gt;&lt;div&gt;+ getName(): String&lt;/div&gt;&lt;div&gt;+ getPetID(): int&lt;/div&gt;&lt;div&gt;+ getBreedType(): String&lt;/div&gt;&lt;div&gt;+ getOwner(): Client&lt;/div&gt;&lt;div&gt;+ getCareProfile(): PetCareProfile&lt;/div&gt;&lt;div&gt;&lt;br&gt;&lt;/div&gt;" style="text;strokeColor=none;fillColor=none;align=left;verticalAlign=top;spacingLeft=4;spacingRight=4;overflow=hidden;rotatable=0;points=[[0,0.5],[1,0.5]];portConstraint=eastwest;whiteSpace=wrap;html=1;" vertex="1" parent="9">
                    <mxGeometry y="140" width="310" height="260" as="geometry"/>
                </mxCell>
                <mxCell id="13" value="Client" style="swimlane;fontStyle=1;align=center;verticalAlign=top;childLayout=stackLayout;horizontal=1;startSize=26;horizontalStack=0;resizeParent=1;resizeParentMax=0;resizeLast=0;collapsible=1;marginBottom=0;whiteSpace=wrap;html=1;" vertex="1" parent="1">
                    <mxGeometry x="750" y="1120" width="270" height="220" as="geometry"/>
                </mxCell>
                <mxCell id="14" value="- name: String&lt;div&gt;- phoneNumber: String&lt;/div&gt;&lt;div&gt;- address: String&lt;/div&gt;&lt;div&gt;&lt;br&gt;&lt;/div&gt;" style="text;strokeColor=none;fillColor=none;align=left;verticalAlign=top;spacingLeft=4;spacingRight=4;overflow=hidden;rotatable=0;points=[[0,0.5],[1,0.5]];portConstraint=eastwest;whiteSpace=wrap;html=1;" vertex="1" parent="13">
                    <mxGeometry y="26" width="270" height="64" as="geometry"/>
                </mxCell>
                <mxCell id="15" value="" style="line;strokeWidth=1;fillColor=none;align=left;verticalAlign=middle;spacingTop=-1;spacingLeft=3;spacingRight=3;rotatable=0;labelPosition=right;points=[];portConstraint=eastwest;strokeColor=inherit;" vertex="1" parent="13">
                    <mxGeometry y="90" width="270" height="2" as="geometry"/>
                </mxCell>
                <mxCell id="16" value="&lt;div&gt;+ Client(name: String, phoneNumber: String, address: String)&lt;/div&gt;&lt;div&gt;+ setName(name: String): void&amp;nbsp;&lt;/div&gt;&lt;div&gt;+ setPhoneNumber(phoneNumber: String): void&lt;/div&gt;&lt;div&gt;+ setAddress(address: String): void&lt;/div&gt;+ getName(): String&lt;div&gt;+ getPhoneNumber(): String&lt;/div&gt;&lt;div&gt;+ getAddress(): String&lt;/div&gt;" style="text;strokeColor=none;fillColor=none;align=left;verticalAlign=top;spacingLeft=4;spacingRight=4;overflow=hidden;rotatable=0;points=[[0,0.5],[1,0.5]];portConstraint=eastwest;whiteSpace=wrap;html=1;" vertex="1" parent="13">
                    <mxGeometry y="92" width="270" height="128" as="geometry"/>
                </mxCell>
                <mxCell id="17" value="FeedingInstruction" style="swimlane;fontStyle=1;align=center;verticalAlign=top;childLayout=stackLayout;horizontal=1;startSize=26;horizontalStack=0;resizeParent=1;resizeParentMax=0;resizeLast=0;collapsible=1;marginBottom=0;whiteSpace=wrap;html=1;" vertex="1" parent="1">
                    <mxGeometry x="940" y="66" width="290" height="220" as="geometry"/>
                </mxCell>
                <mxCell id="18" value="- foodType: String&lt;div&gt;- amount: String&lt;/div&gt;&lt;div&gt;- frequency: String&lt;/div&gt;" style="text;strokeColor=none;fillColor=none;align=left;verticalAlign=top;spacingLeft=4;spacingRight=4;overflow=hidden;rotatable=0;points=[[0,0.5],[1,0.5]];portConstraint=eastwest;whiteSpace=wrap;html=1;" vertex="1" parent="17">
                    <mxGeometry y="26" width="290" height="54" as="geometry"/>
                </mxCell>
                <mxCell id="19" value="" style="line;strokeWidth=1;fillColor=none;align=left;verticalAlign=middle;spacingTop=-1;spacingLeft=3;spacingRight=3;rotatable=0;labelPosition=right;points=[];portConstraint=eastwest;strokeColor=inherit;" vertex="1" parent="17">
                    <mxGeometry y="80" width="290" height="8" as="geometry"/>
                </mxCell>
                <mxCell id="20" value="+ FeedingInstruction(foodType: String, amount:String, frequency: String)&lt;div&gt;+ setFoodType(foodType:String):void&lt;/div&gt;&lt;div&gt;+ setAmount(amount:String):void&lt;/div&gt;&lt;div&gt;+ setFrequency(frequency:String):void&lt;/div&gt;&lt;div&gt;+ getFoodType(): String&lt;/div&gt;&lt;div&gt;+ getAmount(): String&lt;/div&gt;&lt;div&gt;+ getFrequency(): String&lt;/div&gt;" style="text;strokeColor=none;fillColor=none;align=left;verticalAlign=top;spacingLeft=4;spacingRight=4;overflow=hidden;rotatable=0;points=[[0,0.5],[1,0.5]];portConstraint=eastwest;whiteSpace=wrap;html=1;" vertex="1" parent="17">
                    <mxGeometry y="88" width="290" height="132" as="geometry"/>
                </mxCell>
                <mxCell id="21" value="Medication" style="swimlane;fontStyle=1;align=center;verticalAlign=top;childLayout=stackLayout;horizontal=1;startSize=26;horizontalStack=0;resizeParent=1;resizeParentMax=0;resizeLast=0;collapsible=1;marginBottom=0;whiteSpace=wrap;html=1;" vertex="1" parent="1">
                    <mxGeometry x="590" y="316" width="420" height="210" as="geometry"/>
                </mxCell>
                <mxCell id="22" value="- medStartDate: Date&lt;div&gt;- medEndDate: Date&lt;/div&gt;&lt;div&gt;- medName: String&lt;/div&gt;" style="text;strokeColor=none;fillColor=none;align=left;verticalAlign=top;spacingLeft=4;spacingRight=4;overflow=hidden;rotatable=0;points=[[0,0.5],[1,0.5]];portConstraint=eastwest;whiteSpace=wrap;html=1;" vertex="1" parent="21">
                    <mxGeometry y="26" width="420" height="64" as="geometry"/>
                </mxCell>
                <mxCell id="23" value="" style="line;strokeWidth=1;fillColor=none;align=left;verticalAlign=middle;spacingTop=-1;spacingLeft=3;spacingRight=3;rotatable=0;labelPosition=right;points=[];portConstraint=eastwest;strokeColor=inherit;" vertex="1" parent="21">
                    <mxGeometry y="90" width="420" height="8" as="geometry"/>
                </mxCell>
                <mxCell id="24" value="+ Medication(medStartDate: Date, medEndDate: Date, medName: String)&lt;div&gt;+ setMedStartDate(medStartDate: Date): void&lt;/div&gt;&lt;div&gt;+ setMedEndDate(medEndDate: Date): void&lt;/div&gt;&lt;div&gt;+ setMedName(medName: String): void&lt;/div&gt;&lt;div&gt;+ getMedStartDate(): Date&lt;/div&gt;&lt;div&gt;+ getMedEndDate(): Date&lt;/div&gt;&lt;div&gt;+ getMedName(): String&amp;nbsp;&lt;/div&gt;" style="text;strokeColor=none;fillColor=none;align=left;verticalAlign=top;spacingLeft=4;spacingRight=4;overflow=hidden;rotatable=0;points=[[0,0.5],[1,0.5]];portConstraint=eastwest;whiteSpace=wrap;html=1;" vertex="1" parent="21">
                    <mxGeometry y="98" width="420" height="112" as="geometry"/>
                </mxCell>
                <mxCell id="25" value="PetCareProfile" style="swimlane;fontStyle=1;align=center;verticalAlign=top;childLayout=stackLayout;horizontal=1;startSize=26;horizontalStack=0;resizeParent=1;resizeParentMax=0;resizeLast=0;collapsible=1;marginBottom=0;whiteSpace=wrap;html=1;" vertex="1" parent="1">
                    <mxGeometry x="1110" y="340" width="580" height="270" as="geometry"/>
                </mxCell>
                <mxCell id="26" value="- feedInstruction: feedingInstruction&lt;div&gt;- medicationList: Medication[]&lt;/div&gt;&lt;div&gt;- medInstructions: String&lt;/div&gt;" style="text;strokeColor=none;fillColor=none;align=left;verticalAlign=top;spacingLeft=4;spacingRight=4;overflow=hidden;rotatable=0;points=[[0,0.5],[1,0.5]];portConstraint=eastwest;whiteSpace=wrap;html=1;" vertex="1" parent="25">
                    <mxGeometry y="26" width="580" height="54" as="geometry"/>
                </mxCell>
                <mxCell id="27" value="" style="line;strokeWidth=1;fillColor=none;align=left;verticalAlign=middle;spacingTop=-1;spacingLeft=3;spacingRight=3;rotatable=0;labelPosition=right;points=[];portConstraint=eastwest;strokeColor=inherit;" vertex="1" parent="25">
                    <mxGeometry y="80" width="580" height="18" as="geometry"/>
                </mxCell>
                <mxCell id="28" value="&lt;div&gt;+ PetCareProfile(&lt;span style=&quot;background-color: initial;&quot;&gt;medInstructions: String,&amp;nbsp;&lt;/span&gt;&lt;span style=&quot;background-color: initial;&quot;&gt;feedInstruction: FeedingInstruction, medicationList: Medication[])&lt;/span&gt;&lt;/div&gt;&lt;div&gt;+ PetCareProfile(&lt;span style=&quot;background-color: initial;&quot;&gt;medInstructions: String,&amp;nbsp;&lt;/span&gt;&lt;span style=&quot;background-color: initial;&quot;&gt;feedInstruction: FeedingInstruction)&lt;/span&gt;&lt;/div&gt;&lt;div&gt;&lt;span style=&quot;background-color: initial;&quot;&gt;+ PetCareProfile(&amp;nbsp;&lt;/span&gt;&lt;span style=&quot;background-color: initial;&quot;&gt;medInstructions: String&lt;/span&gt;&lt;span style=&quot;background-color: initial;&quot;&gt;, medicationList: Medication[])&lt;/span&gt;&lt;/div&gt;&lt;div&gt;&lt;span style=&quot;background-color: initial;&quot;&gt;+ PetCareProfile(&lt;/span&gt;&lt;span style=&quot;background-color: initial;&quot;&gt;medInstructions: String)&lt;/span&gt;&lt;/div&gt;&lt;div&gt;+ setMedicationList(medStartDate: Date, medEndDate: Date, medName: String): void&lt;/div&gt;&lt;div&gt;+ setFeedInstruction(foodType: String, amount: String, frequency: String): void&lt;/div&gt;&lt;div&gt;+ setMedInstruction(medInstructions: String): void&amp;nbsp;&lt;br&gt;&lt;/div&gt;&lt;div&gt;+ getMedInstructions(): String&lt;br&gt;&lt;/div&gt;&lt;div&gt;+ getfeedInstruction(): FeedingInstruction&lt;/div&gt;&lt;div&gt;+ getMedicationList(): Medication[]&lt;/div&gt;&lt;div&gt;+ printCareInstructions(): String&lt;/div&gt;" style="text;strokeColor=none;fillColor=none;align=left;verticalAlign=top;spacingLeft=4;spacingRight=4;overflow=hidden;rotatable=0;points=[[0,0.5],[1,0.5]];portConstraint=eastwest;whiteSpace=wrap;html=1;" vertex="1" parent="25">
                    <mxGeometry y="98" width="580" height="172" as="geometry"/>
                </mxCell>
                <mxCell id="29" value="Booking" style="swimlane;fontStyle=1;align=center;verticalAlign=top;childLayout=stackLayout;horizontal=1;startSize=20;horizontalStack=0;resizeParent=1;resizeParentMax=0;resizeLast=0;collapsible=1;marginBottom=0;whiteSpace=wrap;html=1;" vertex="1" parent="1">
                    <mxGeometry x="1080" y="750" width="280" height="360" as="geometry"/>
                </mxCell>
                <mxCell id="30" value="&lt;div&gt;- petInfo: Pet&lt;/div&gt;&lt;div&gt;- caretaker: Staff&lt;/div&gt;&lt;div&gt;&lt;span style=&quot;background-color: initial;&quot;&gt;- bookingHistory: Payment[]&lt;/span&gt;&lt;/div&gt;&lt;div&gt;&lt;span style=&quot;background-color: initial;&quot;&gt;- bookingDate: Date&lt;/span&gt;&lt;/div&gt;&lt;div&gt;&lt;span style=&quot;background-color: initial;&quot;&gt;- client: Client&lt;/span&gt;&lt;/div&gt;" style="text;strokeColor=none;fillColor=none;align=left;verticalAlign=top;spacingLeft=4;spacingRight=4;overflow=hidden;rotatable=0;points=[[0,0.5],[1,0.5]];portConstraint=eastwest;whiteSpace=wrap;html=1;" vertex="1" parent="29">
                    <mxGeometry y="20" width="280" height="80" as="geometry"/>
                </mxCell>
                <mxCell id="31" value="" style="line;strokeWidth=1;fillColor=none;align=left;verticalAlign=middle;spacingTop=-1;spacingLeft=3;spacingRight=3;rotatable=0;labelPosition=right;points=[];portConstraint=eastwest;strokeColor=inherit;" vertex="1" parent="29">
                    <mxGeometry y="100" width="280" height="8" as="geometry"/>
                </mxCell>
                <mxCell id="32" value="+ Booking(petInfo: Pet, caretaker: Staff, bookingHistory: Payment[], client: Client)&lt;div&gt;+ setPetInfo(name:String, petID: int, breedType: String, owner: Client, careProfile: PetCareProfile):void&lt;/div&gt;&lt;div&gt;+ setCaretaker(name: String, staffID: String):void&lt;/div&gt;&lt;div&gt;+ setBookingHistory(bookingHistory: Payment):void&lt;/div&gt;&lt;div&gt;+ setBookingDate(bookingDate: Date):void&lt;/div&gt;&lt;div&gt;+ setClient(name: String, phoneNumber: String, address:String): void&lt;/div&gt;&lt;div&gt;+ getPetInfo():Pet&lt;/div&gt;&lt;div&gt;+ getCaretaker(): Staff&lt;/div&gt;&lt;div&gt;+ getBookingHistory(): Payment[]&lt;/div&gt;&lt;div&gt;+ getBookingDate(): Date&lt;/div&gt;&lt;div&gt;+ getClient():Client&lt;/div&gt;&lt;div&gt;+ displayBookingHistory(): void&lt;/div&gt;" style="text;strokeColor=none;fillColor=none;align=left;verticalAlign=top;spacingLeft=4;spacingRight=4;overflow=hidden;rotatable=0;points=[[0,0.5],[1,0.5]];portConstraint=eastwest;whiteSpace=wrap;html=1;" vertex="1" parent="29">
                    <mxGeometry y="108" width="280" height="252" as="geometry"/>
                </mxCell>
                <mxCell id="33" value="Payment" style="swimlane;fontStyle=1;align=center;verticalAlign=top;childLayout=stackLayout;horizontal=1;startSize=26;horizontalStack=0;resizeParent=1;resizeParentMax=0;resizeLast=0;collapsible=1;marginBottom=0;whiteSpace=wrap;html=1;" vertex="1" parent="1">
                    <mxGeometry x="1430" y="985" width="490" height="260" as="geometry"/>
                </mxCell>
                <mxCell id="34" value="&lt;div&gt;- amount: Double&lt;/div&gt;&lt;div&gt;- transactionDate: Date&lt;/div&gt;&lt;div&gt;- &lt;u&gt;idCounter: int&lt;/u&gt;&lt;/div&gt;&lt;div&gt;- PAYMENTID: int&lt;/div&gt;&lt;div&gt;- status: String&amp;nbsp;&lt;/div&gt;" style="text;strokeColor=none;fillColor=none;align=left;verticalAlign=top;spacingLeft=4;spacingRight=4;overflow=hidden;rotatable=0;points=[[0,0.5],[1,0.5]];portConstraint=eastwest;whiteSpace=wrap;html=1;" vertex="1" parent="33">
                    <mxGeometry y="26" width="490" height="64" as="geometry"/>
                </mxCell>
                <mxCell id="35" value="" style="line;strokeWidth=1;fillColor=none;align=left;verticalAlign=middle;spacingTop=-1;spacingLeft=3;spacingRight=3;rotatable=0;labelPosition=right;points=[];portConstraint=eastwest;strokeColor=inherit;" vertex="1" parent="33">
                    <mxGeometry y="90" width="490" height="20" as="geometry"/>
                </mxCell>
                <mxCell id="36" value="+ Payment(amount: Double)&amp;nbsp;&lt;div&gt;+ setAmount(amount: Double): void&lt;/div&gt;&lt;div&gt;+ setStatus(status: String): void&lt;/div&gt;&lt;div&gt;+ getAmount(): Double&lt;/div&gt;&lt;div&gt;+ getTransactionDate(): Date&lt;/div&gt;&lt;div&gt;+ getPaymentID(): String&lt;/div&gt;&lt;div&gt;+ getStatus(): String&lt;/div&gt;&lt;div&gt;&lt;br&gt;&lt;/div&gt;" style="text;strokeColor=none;fillColor=none;align=left;verticalAlign=top;spacingLeft=4;spacingRight=4;overflow=hidden;rotatable=0;points=[[0,0.5],[1,0.5]];portConstraint=eastwest;whiteSpace=wrap;html=1;" vertex="1" parent="33">
                    <mxGeometry y="110" width="490" height="150" as="geometry"/>
                </mxCell>
                <mxCell id="37" value="" style="endArrow=diamondThin;endFill=0;endSize=24;html=1;rounded=0;exitX=0.406;exitY=0.011;exitDx=0;exitDy=0;exitPerimeter=0;entryX=0.359;entryY=1.012;entryDx=0;entryDy=0;entryPerimeter=0;" edge="1" parent="1" source="13" target="12">
                    <mxGeometry width="160" relative="1" as="geometry">
                        <mxPoint x="860" y="991" as="sourcePoint"/>
                        <mxPoint x="860" y="990" as="targetPoint"/>
                    </mxGeometry>
                </mxCell>
                <mxCell id="38" value="" style="line;strokeWidth=1;fillColor=none;align=left;verticalAlign=middle;spacingTop=-1;spacingLeft=3;spacingRight=3;rotatable=0;labelPosition=right;points=[];portConstraint=eastwest;strokeColor=inherit;" vertex="1" parent="1">
                    <mxGeometry x="1060" y="648" width="320" height="8" as="geometry"/>
                </mxCell>
                <mxCell id="39" value="&amp;lt;&amp;lt;throws&amp;gt;&amp;gt;" style="endArrow=open;endSize=12;dashed=1;html=1;rounded=0;exitX=-0.009;exitY=0.35;exitDx=0;exitDy=0;exitPerimeter=0;" edge="1" parent="1" source="24" target="41">
                    <mxGeometry x="0.0596" y="-23" width="160" relative="1" as="geometry">
                        <mxPoint x="700" y="420" as="sourcePoint"/>
                        <mxPoint x="650" y="385" as="targetPoint"/>
                        <mxPoint as="offset"/>
                    </mxGeometry>
                </mxCell>
                <mxCell id="40" value="0..*" style="text;html=1;align=center;verticalAlign=middle;resizable=0;points=[];autosize=1;strokeColor=none;fillColor=none;" vertex="1" parent="1">
                    <mxGeometry x="1050" y="626" width="40" height="30" as="geometry"/>
                </mxCell>
                <mxCell id="41" value="IllegalArgumentException" style="swimlane;fontStyle=1;align=center;verticalAlign=top;childLayout=stackLayout;horizontal=1;startSize=26;horizontalStack=0;resizeParent=1;resizeParentMax=0;resizeLast=0;collapsible=1;marginBottom=0;whiteSpace=wrap;html=1;" vertex="1" parent="1">
                    <mxGeometry x="340" y="350" width="160" height="34" as="geometry"/>
                </mxCell>
                <mxCell id="42" value="" style="line;strokeWidth=1;fillColor=none;align=left;verticalAlign=middle;spacingTop=-1;spacingLeft=3;spacingRight=3;rotatable=0;labelPosition=right;points=[];portConstraint=eastwest;strokeColor=inherit;" vertex="1" parent="41">
                    <mxGeometry y="26" width="160" height="8" as="geometry"/>
                </mxCell>
                <mxCell id="43" value="&amp;lt;&amp;lt;throws&amp;gt;&amp;gt;" style="endArrow=open;endSize=12;dashed=1;html=1;rounded=0;exitX=-0.005;exitY=0.247;exitDx=0;exitDy=0;exitPerimeter=0;entryX=1;entryY=0.5;entryDx=0;entryDy=0;" edge="1" parent="1" target="41">
                    <mxGeometry x="0.1114" y="26" width="160" relative="1" as="geometry">
                        <mxPoint x="590.0000000000001" y="442.00400000000025" as="sourcePoint"/>
                        <mxPoint x="503.38" y="359.996" as="targetPoint"/>
                        <mxPoint as="offset"/>
                    </mxGeometry>
                </mxCell>
                <mxCell id="44" value="1" style="text;html=1;align=center;verticalAlign=middle;resizable=0;points=[];autosize=1;strokeColor=none;fillColor=none;" vertex="1" parent="1">
                    <mxGeometry x="1345" y="626" width="30" height="30" as="geometry"/>
                </mxCell>
                <mxCell id="45" value="" style="endArrow=none;dashed=1;html=1;rounded=0;exitX=0.472;exitY=-0.008;exitDx=0;exitDy=0;exitPerimeter=0;entryX=0.4;entryY=0.667;entryDx=0;entryDy=0;entryPerimeter=0;" edge="1" parent="1" source="29">
                    <mxGeometry width="50" height="50" relative="1" as="geometry">
                        <mxPoint x="1180" y="744" as="sourcePoint"/>
                        <mxPoint x="1210" y="650.0100000000002" as="targetPoint"/>
                    </mxGeometry>
                </mxCell>
                <mxCell id="46" value="0..*" style="text;html=1;align=center;verticalAlign=middle;resizable=0;points=[];autosize=1;strokeColor=none;fillColor=none;" vertex="1" parent="1">
                    <mxGeometry x="810" y="990" width="40" height="30" as="geometry"/>
                </mxCell>
                <mxCell id="47" value="1" style="text;html=1;align=center;verticalAlign=middle;resizable=0;points=[];autosize=1;strokeColor=none;fillColor=none;" vertex="1" parent="1">
                    <mxGeometry x="860" y="1090" width="30" height="30" as="geometry"/>
                </mxCell>
                <mxCell id="48" value="1" style="text;html=1;align=center;verticalAlign=middle;resizable=0;points=[];autosize=1;strokeColor=none;fillColor=none;" vertex="1" parent="1">
                    <mxGeometry x="1080" y="510" width="30" height="30" as="geometry"/>
                </mxCell>
                <mxCell id="49" value="1" style="text;html=1;align=center;verticalAlign=middle;resizable=0;points=[];autosize=1;strokeColor=none;fillColor=none;" vertex="1" parent="1">
                    <mxGeometry x="970" y="550" width="30" height="30" as="geometry"/>
                </mxCell>
                <mxCell id="50" value="0..*" style="text;html=1;align=center;verticalAlign=middle;resizable=0;points=[];autosize=1;strokeColor=none;fillColor=none;" vertex="1" parent="1">
                    <mxGeometry x="1170" y="1110" width="40" height="30" as="geometry"/>
                </mxCell>
                <mxCell id="51" value="1" style="text;html=1;align=center;verticalAlign=middle;resizable=0;points=[];autosize=1;strokeColor=none;fillColor=none;" vertex="1" parent="1">
                    <mxGeometry x="1020" y="1220" width="30" height="30" as="geometry"/>
                </mxCell>
                <mxCell id="52" value="" style="endArrow=diamondThin;endFill=0;endSize=24;html=1;rounded=0;entryX=0.439;entryY=-0.001;entryDx=0;entryDy=0;entryPerimeter=0;exitX=0.936;exitY=0.96;exitDx=0;exitDy=0;exitPerimeter=0;" edge="1" parent="1" source="53" target="25">
                    <mxGeometry width="160" relative="1" as="geometry">
                        <mxPoint x="845" y="233" as="sourcePoint"/>
                        <mxPoint x="1300" y="360" as="targetPoint"/>
                        <Array as="points">
                            <mxPoint x="850" y="10"/>
                            <mxPoint x="1360" y="10"/>
                        </Array>
                    </mxGeometry>
                </mxCell>
                <mxCell id="53" value="0..*" style="text;html=1;align=center;verticalAlign=middle;resizable=0;points=[];autosize=1;strokeColor=none;fillColor=none;" vertex="1" parent="1">
                    <mxGeometry x="810" y="286" width="40" height="30" as="geometry"/>
                </mxCell>
                <mxCell id="54" value="1" style="text;html=1;align=center;verticalAlign=middle;resizable=0;points=[];autosize=1;strokeColor=none;fillColor=none;" vertex="1" parent="1">
                    <mxGeometry x="1330" y="300" width="30" height="30" as="geometry"/>
                </mxCell>
                <mxCell id="55" value="1" style="text;html=1;align=center;verticalAlign=middle;resizable=0;points=[];autosize=1;strokeColor=none;fillColor=none;" vertex="1" parent="1">
                    <mxGeometry x="1260" y="310" width="30" height="30" as="geometry"/>
                </mxCell>
                <mxCell id="56" value="" style="endArrow=diamondThin;endFill=1;endSize=24;html=1;rounded=0;exitX=0.943;exitY=0.942;exitDx=0;exitDy=0;entryX=1.021;entryY=0.852;entryDx=0;entryDy=0;entryPerimeter=0;exitPerimeter=0;" edge="1" parent="1" source="48" target="49">
                    <mxGeometry width="160" relative="1" as="geometry">
                        <mxPoint x="1145" y="530" as="sourcePoint"/>
                        <mxPoint x="930" y="538" as="targetPoint"/>
                        <Array as="points">
                            <mxPoint x="1000" y="538"/>
                        </Array>
                    </mxGeometry>
                </mxCell>
                <mxCell id="57" value="" style="endArrow=diamondThin;endFill=0;endSize=24;html=1;rounded=0;" edge="1" parent="1">
                    <mxGeometry width="160" relative="1" as="geometry">
                        <mxPoint x="1231" y="190" as="sourcePoint"/>
                        <mxPoint x="1260" y="340" as="targetPoint"/>
                        <Array as="points">
                            <mxPoint x="1260" y="190"/>
                        </Array>
                    </mxGeometry>
                </mxCell>
                <mxCell id="58" value="1" style="text;html=1;align=center;verticalAlign=middle;resizable=0;points=[];autosize=1;strokeColor=none;fillColor=none;" vertex="1" parent="1">
                    <mxGeometry x="1230" y="161" width="30" height="30" as="geometry"/>
                </mxCell>
                <mxCell id="59" value="" style="endArrow=open;endSize=12;dashed=1;html=1;rounded=0;entryX=0.38;entryY=0.005;entryDx=0;entryDy=0;entryPerimeter=0;" edge="1" parent="1">
                    <mxGeometry width="160" relative="1" as="geometry">
                        <mxPoint x="1360" y="820" as="sourcePoint"/>
                        <mxPoint x="1686.1999999999998" y="986.3000000000002" as="targetPoint"/>
                        <Array as="points">
                            <mxPoint x="1470" y="820"/>
                            <mxPoint x="1686" y="820"/>
                        </Array>
                    </mxGeometry>
                </mxCell>
                <mxCell id="60" value="&amp;lt;&amp;lt;uses&amp;gt;&amp;gt;" style="edgeLabel;html=1;align=center;verticalAlign=middle;resizable=0;points=[];" connectable="0" vertex="1" parent="59">
                    <mxGeometry x="0.6214" y="3" relative="1" as="geometry">
                        <mxPoint as="offset"/>
                    </mxGeometry>
                </mxCell>
                <mxCell id="61" value="&amp;lt;&amp;lt;throws&amp;gt;&amp;gt;" style="endArrow=open;endSize=12;dashed=1;html=1;rounded=0;exitX=0.003;exitY=0.418;exitDx=0;exitDy=0;exitPerimeter=0;entryX=1.001;entryY=0.644;entryDx=0;entryDy=0;entryPerimeter=0;" edge="1" parent="1" source="16" target="62">
                    <mxGeometry width="160" relative="1" as="geometry">
                        <mxPoint x="770" y="1230" as="sourcePoint"/>
                        <mxPoint x="630" y="1266" as="targetPoint"/>
                    </mxGeometry>
                </mxCell>
                <mxCell id="62" value="IllegalArgumentException" style="swimlane;fontStyle=1;align=center;verticalAlign=top;childLayout=stackLayout;horizontal=1;startSize=26;horizontalStack=0;resizeParent=1;resizeParentMax=0;resizeLast=0;collapsible=1;marginBottom=0;whiteSpace=wrap;html=1;" vertex="1" parent="1">
                    <mxGeometry x="490" y="1290" width="160" height="34" as="geometry"/>
                </mxCell>
                <mxCell id="63" value="" style="line;strokeWidth=1;fillColor=none;align=left;verticalAlign=middle;spacingTop=-1;spacingLeft=3;spacingRight=3;rotatable=0;labelPosition=right;points=[];portConstraint=eastwest;strokeColor=inherit;" vertex="1" parent="62">
                    <mxGeometry y="26" width="160" height="8" as="geometry"/>
                </mxCell>
                <mxCell id="64" value="" style="endArrow=open;endFill=1;endSize=12;html=1;rounded=0;exitX=0.464;exitY=1.006;exitDx=0;exitDy=0;exitPerimeter=0;entryX=0.089;entryY=0.978;entryDx=0;entryDy=0;entryPerimeter=0;" edge="1" parent="1" source="32" target="51">
                    <mxGeometry width="160" relative="1" as="geometry">
                        <mxPoint x="1110" y="1230" as="sourcePoint"/>
                        <mxPoint x="1183" y="1104" as="targetPoint"/>
                        <Array as="points">
                            <mxPoint x="1210" y="1250"/>
                        </Array>
                    </mxGeometry>
                </mxCell>
                <mxCell id="65" value="PetResortApplication" style="swimlane;fontStyle=1;align=center;verticalAlign=top;childLayout=stackLayout;horizontal=1;startSize=26;horizontalStack=0;resizeParent=1;resizeParentMax=0;resizeLast=0;collapsible=1;marginBottom=0;whiteSpace=wrap;html=1;" vertex="1" parent="1">
                    <mxGeometry x="340" y="560" width="310" height="414" as="geometry"/>
                </mxCell>
                <mxCell id="66" value="+ run(): void&lt;div&gt;+ manageClients(&lt;span style=&quot;background-color: initial;&quot;&gt;clients: ArrayList&amp;lt;Client&amp;gt;&lt;/span&gt;&lt;span style=&quot;background-color: initial;&quot;&gt;): void&lt;/span&gt;&lt;/div&gt;&lt;div&gt;+ addClient(&lt;span style=&quot;background-color: initial;&quot;&gt;clients: ArrayList&amp;lt;Client&amp;gt;&lt;/span&gt;&lt;span style=&quot;background-color: initial;&quot;&gt;): void&lt;/span&gt;&lt;/div&gt;&lt;div&gt;+ updateClient(clients: ArrayList&amp;lt;Client&amp;gt;): void&lt;/div&gt;&lt;div&gt;+ removeClient(client: ArrayList&amp;lt;Client&amp;gt;): void&lt;/div&gt;&lt;div&gt;+ managePet(&lt;span style=&quot;background-color: initial;&quot;&gt;pets:&amp;nbsp;&lt;/span&gt;&lt;span style=&quot;background-color: initial;&quot;&gt;ArrayList&amp;lt;Pet&amp;gt;&lt;/span&gt;&lt;span style=&quot;background-color: initial;&quot;&gt;): void&lt;/span&gt;&lt;/div&gt;&lt;div&gt;+ addPet(&lt;span style=&quot;background-color: initial;&quot;&gt;pets:&amp;nbsp;&lt;/span&gt;&lt;span style=&quot;background-color: initial;&quot;&gt;ArrayList&amp;lt;Pet&amp;gt;&lt;/span&gt;&lt;span style=&quot;background-color: initial;&quot;&gt;): void&lt;/span&gt;&lt;/div&gt;&lt;div&gt;+ updatePet(pets:&amp;nbsp;&lt;span style=&quot;background-color: initial;&quot;&gt;ArrayList&amp;lt;Pet&amp;gt;&lt;/span&gt;&lt;span style=&quot;background-color: initial;&quot;&gt;): void&lt;/span&gt;&lt;/div&gt;&lt;div&gt;&lt;span style=&quot;background-color: initial;&quot;&gt;+ removePet(&lt;/span&gt;&lt;span style=&quot;background-color: initial;&quot;&gt;pets:&amp;nbsp;&lt;/span&gt;&lt;span style=&quot;background-color: initial;&quot;&gt;ArrayList&amp;lt;Pet&amp;gt;&lt;/span&gt;&lt;span style=&quot;background-color: initial;&quot;&gt;): void&lt;/span&gt;&lt;/div&gt;&lt;div&gt;&lt;span style=&quot;background-color: initial;&quot;&gt;+ manageBookings(bookings: ArrayList&amp;lt;Booking&amp;gt;):void&lt;/span&gt;&lt;/div&gt;&lt;div&gt;&lt;span style=&quot;background-color: initial;&quot;&gt;+ addBooking(&lt;/span&gt;&lt;span style=&quot;background-color: initial;&quot;&gt;bookings: ArrayList&amp;lt;Booking&amp;gt;):void&lt;/span&gt;&lt;/div&gt;&lt;div&gt;&lt;span style=&quot;background-color: initial;&quot;&gt;+ updateBooking(&lt;/span&gt;&lt;span style=&quot;background-color: initial;&quot;&gt;bookings: ArrayList&amp;lt;Booking&amp;gt;):void&lt;/span&gt;&lt;/div&gt;&lt;div&gt;&lt;span style=&quot;background-color: initial;&quot;&gt;+ removeBooking(&lt;/span&gt;&lt;span style=&quot;background-color: initial;&quot;&gt;bookings: ArrayList&amp;lt;Booking&amp;gt;):void&lt;/span&gt;&lt;/div&gt;&lt;div&gt;&lt;span style=&quot;background-color: initial;&quot;&gt;+ displayBookingHistory(&lt;/span&gt;&lt;span style=&quot;background-color: initial;&quot;&gt;bookings: ArrayList&amp;lt;Booking&amp;gt;):void&lt;/span&gt;&lt;/div&gt;&lt;div&gt;&lt;span style=&quot;background-color: initial;&quot;&gt;+ findClientByName(clientName: String): Client&lt;/span&gt;&lt;/div&gt;&lt;div&gt;&lt;span style=&quot;background-color: initial;&quot;&gt;+ findPetByName(petName: String): Pet&lt;/span&gt;&lt;/div&gt;&lt;div&gt;&lt;span style=&quot;background-color: initial;&quot;&gt;+ findStaffByName(staffName: String): Staff&lt;/span&gt;&lt;/div&gt;&lt;div&gt;&lt;span style=&quot;background-color: initial;&quot;&gt;+ findBookingByClientAndPet(ArrayList&amp;lt;Booking&amp;gt; bookings, client: Client, pet: Pet):Booking&lt;/span&gt;&lt;/div&gt;&lt;div&gt;&lt;span style=&quot;background-color: initial;&quot;&gt;+ parseDate(dateString: String): Date&lt;/span&gt;&lt;/div&gt;&lt;div&gt;&lt;span style=&quot;background-color: initial;&quot;&gt;+ managePetCareProfiel():void&lt;/span&gt;&lt;/div&gt;&lt;div&gt;&lt;span style=&quot;background-color: initial;&quot;&gt;+ createPetCareProfile():void&lt;/span&gt;&lt;/div&gt;&lt;div&gt;&lt;span style=&quot;background-color: initial;&quot;&gt;+ updatePetCareProfile(): void&lt;/span&gt;&lt;/div&gt;&lt;div&gt;&lt;span style=&quot;background-color: initial;&quot;&gt;+ viewPetCareProfile(): void&amp;nbsp;&lt;/span&gt;&lt;/div&gt;&lt;div&gt;&lt;br&gt;&lt;/div&gt;" style="text;strokeColor=none;fillColor=none;align=left;verticalAlign=top;spacingLeft=4;spacingRight=4;overflow=hidden;rotatable=0;points=[[0,0.5],[1,0.5]];portConstraint=eastwest;whiteSpace=wrap;html=1;" vertex="1" parent="65">
                    <mxGeometry y="26" width="310" height="380" as="geometry"/>
                </mxCell>
                <mxCell id="67" value="" style="line;strokeWidth=1;fillColor=none;align=left;verticalAlign=middle;spacingTop=-1;spacingLeft=3;spacingRight=3;rotatable=0;labelPosition=right;points=[];portConstraint=eastwest;strokeColor=inherit;" vertex="1" parent="65">
                    <mxGeometry y="406" width="310" height="8" as="geometry"/>
                </mxCell>
                <mxCell id="68" value="" style="endArrow=block;dashed=1;endFill=0;endSize=12;html=1;rounded=0;entryX=0.5;entryY=0;entryDx=0;entryDy=0;" edge="1" parent="1" target="2">
                    <mxGeometry width="160" relative="1" as="geometry">
                        <mxPoint x="470" y="969" as="sourcePoint"/>
                        <mxPoint x="740" y="1110" as="targetPoint"/>
                    </mxGeometry>
                </mxCell>
                <mxCell id="69" value="" style="endArrow=block;dashed=1;endFill=0;endSize=12;html=1;rounded=0;exitX=-0.002;exitY=0.755;exitDx=0;exitDy=0;exitPerimeter=0;entryX=1.012;entryY=0.138;entryDx=0;entryDy=0;entryPerimeter=0;" edge="1" parent="1" source="12" target="2">
                    <mxGeometry width="160" relative="1" as="geometry">
                        <mxPoint x="690" y="950" as="sourcePoint"/>
                        <mxPoint x="850" y="950" as="targetPoint"/>
                        <Array as="points">
                            <mxPoint x="690" y="916"/>
                            <mxPoint x="690" y="1050"/>
                        </Array>
                    </mxGeometry>
                </mxCell>
                <mxCell id="70" value="" style="endArrow=block;dashed=1;endFill=0;endSize=12;html=1;rounded=0;exitX=0.002;exitY=0.09;exitDx=0;exitDy=0;exitPerimeter=0;entryX=1.012;entryY=0.138;entryDx=0;entryDy=0;entryPerimeter=0;" edge="1" parent="1" source="13">
                    <mxGeometry width="160" relative="1" as="geometry">
                        <mxPoint x="746" y="1005" as="sourcePoint"/>
                        <mxPoint x="590" y="1140" as="targetPoint"/>
                        <Array as="points">
                            <mxPoint x="730" y="1140"/>
                            <mxPoint x="687" y="1139"/>
                        </Array>
                    </mxGeometry>
                </mxCell>
                <mxCell id="71" value="" style="endArrow=block;dashed=1;endFill=0;endSize=12;html=1;rounded=0;exitX=0.519;exitY=1.004;exitDx=0;exitDy=0;exitPerimeter=0;" edge="1" parent="1" source="8">
                    <mxGeometry width="160" relative="1" as="geometry">
                        <mxPoint x="1020" y="1030" as="sourcePoint"/>
                        <mxPoint x="590" y="1070" as="targetPoint"/>
                        <Array as="points">
                            <mxPoint x="1390" y="810"/>
                            <mxPoint x="1390" y="1160"/>
                            <mxPoint x="1040" y="1160"/>
                            <mxPoint x="1040" y="1070"/>
                        </Array>
                    </mxGeometry>
                </mxCell>
                <mxCell id="72" value="" style="endArrow=block;dashed=1;endFill=0;endSize=12;html=1;rounded=0;entryX=0.589;entryY=1.031;entryDx=0;entryDy=0;entryPerimeter=0;" edge="1" parent="1" target="4">
                    <mxGeometry width="160" relative="1" as="geometry">
                        <mxPoint x="1277.5" y="1110" as="sourcePoint"/>
                        <mxPoint x="350" y="1380" as="targetPoint"/>
                        <Array as="points">
                            <mxPoint x="1278" y="1380"/>
                            <mxPoint x="420" y="1380"/>
                        </Array>
                    </mxGeometry>
                </mxCell>
                <mxCell id="73" value="" style="endArrow=block;dashed=1;endFill=0;endSize=12;html=1;rounded=0;exitX=0.577;exitY=1.028;exitDx=0;exitDy=0;exitPerimeter=0;entryX=0.476;entryY=1.016;entryDx=0;entryDy=0;entryPerimeter=0;" edge="1" parent="1" source="36" target="4">
                    <mxGeometry width="160" relative="1" as="geometry">
                        <mxPoint x="1840" y="1440" as="sourcePoint"/>
                        <mxPoint x="240" y="1430" as="targetPoint"/>
                        <Array as="points">
                            <mxPoint x="1710" y="1440"/>
                            <mxPoint x="380" y="1430"/>
                        </Array>
                    </mxGeometry>
                </mxCell>
            </root>
        </mxGraphModel>
    </diagram>
</mxfile>